<?xml version="1.0" encoding="UTF-8" standalone="no"?>
<!-- Created with Inkscape (http://www.inkscape.org/) -->

<svg
   xmlns:dc="http://purl.org/dc/elements/1.1/"
   xmlns:cc="http://creativecommons.org/ns#"
   xmlns:rdf="http://www.w3.org/1999/02/22-rdf-syntax-ns#"
   xmlns:svg="http://www.w3.org/2000/svg"
   xmlns="http://www.w3.org/2000/svg"
   xmlns:sodipodi="http://sodipodi.sourceforge.net/DTD/sodipodi-0.dtd"
   xmlns:inkscape="http://www.inkscape.org/namespaces/inkscape"
   id="svg2"
   sodipodi:version="0.32"
   inkscape:version="0.47 r22583"
   width="300pt"
   height="300pt"
   version="1.0"
   sodipodi:docname="Ortodroma_IT.svg"
   inkscape:export-filename="D:\olek\Pulpit\svg\POL_Chodzież_COA.png"
   inkscape:export-xdpi="87.080002"
   inkscape:export-ydpi="87.080002">
  <metadata
     id="metadata7">
    <rdf:RDF>
      <cc:Work
         rdf:about="">
        <dc:format>image/svg+xml</dc:format>
        <dc:type
           rdf:resource="http://purl.org/dc/dcmitype/StillImage" />
        <dc:title />
        <dc:creator>
          <cc:Agent>
            <dc:title />
          </cc:Agent>
        </dc:creator>
        <cc:license
           rdf:resource="http://web.resource.org/cc/PublicDomain" />
      </cc:Work>
      <cc:License
         rdf:about="http://web.resource.org/cc/PublicDomain">
        <cc:permits
           rdf:resource="http://web.resource.org/cc/Reproduction" />
        <cc:permits
           rdf:resource="http://web.resource.org/cc/Distribution" />
        <cc:permits
           rdf:resource="http://web.resource.org/cc/DerivativeWorks" />
      </cc:License>
    </rdf:RDF>
  </metadata>
  <defs
     id="defs5">
    <inkscape:perspective
       sodipodi:type="inkscape:persp3d"
       inkscape:vp_x="0 : 187.5 : 1"
       inkscape:vp_y="0 : 1000 : 0"
       inkscape:vp_z="375 : 187.5 : 1"
       inkscape:persp3d-origin="187.5 : 125 : 1"
       id="perspective30" />
    <linearGradient
       id="linearGradient3114">
      <stop
         style="stop-color:#ffffff;stop-opacity:1;"
         offset="0"
         id="stop3116" />
      <stop
         id="stop3135"
         offset="0.61538464"
         style="stop-color:#ffffff;stop-opacity:1;" />
      <stop
         id="stop3133"
         offset="1"
         style="stop-color:#c8c8c8;stop-opacity:1;" />
    </linearGradient>
  </defs>
  <sodipodi:namedview
     inkscape:window-height="974"
     inkscape:window-width="1280"
     inkscape:pageshadow="2"
     inkscape:pageopacity="0.0"
     borderopacity="1.0"
     bordercolor="#666666"
     pagecolor="#ffffff"
     id="base"
     borderlayer="top"
     inkscape:zoom="1.984"
     inkscape:cx="187.5"
     inkscape:cy="268.14516"
     inkscape:window-x="-8"
     inkscape:window-y="-8"
     inkscape:current-layer="layer3"
     showguides="true"
     inkscape:guide-bbox="true"
     showgrid="false"
     inkscape:window-maximized="1" />
  <g
     inkscape:groupmode="layer"
     id="layer4"
     inkscape:label="f"
     style="display:inline">
    <g
       id="g7112"
       transform="translate(-6.39e-2,-7.5)" />
  </g>
  <g
     inkscape:groupmode="layer"
     id="layer3"
     inkscape:label="d"
     style="display:inline">
    <path
       sodipodi:type="arc"
       style="opacity:1;color:#000000;fill:none;fill-opacity:1;fill-rule:evenodd;stroke:#000000;stroke-width:1.66388524;stroke-linecap:butt;stroke-linejoin:miter;marker:none;marker-start:none;marker-mid:none;marker-end:none;stroke-miterlimit:4;stroke-dasharray:none;stroke-dashoffset:0;stroke-opacity:1;visibility:visible;display:inline;overflow:visible"
       id="path1366"
       sodipodi:cx="175.5"
       sodipodi:cy="196.5"
       sodipodi:rx="152.5"
       sodipodi:ry="152.5"
       d="M 328 196.5 A 152.5 152.5 0 1 1  23,196.5 A 152.5 152.5 0 1 1  328 196.5 z"
       transform="matrix(1.202006,0,0,1.202006,-23.45205,-48.69418)" />
    <path
       sodipodi:type="arc"
       style="opacity:1;color:#000000;fill:none;fill-opacity:1;fill-rule:evenodd;stroke:#000000;stroke-width:0;stroke-linecap:butt;stroke-linejoin:miter;marker:none;marker-start:none;marker-mid:none;marker-end:none;stroke-miterlimit:4;stroke-dasharray:none;stroke-dashoffset:0;stroke-opacity:1;visibility:visible;display:inline;overflow:visible"
       id="path3139"
       sodipodi:cx="175.5"
       sodipodi:cy="196.5"
       sodipodi:rx="152.5"
       sodipodi:ry="152.5"
       d="M 328 196.5 A 152.5 152.5 0 1 1  23,196.5 A 152.5 152.5 0 1 1  328 196.5 z"
       transform="matrix(0.244117,0.324259,-0.960292,0.72295,333.355,-10.96724)" />
    <path
       style="color:#000000;fill:none;fill-opacity:1;fill-rule:evenodd;stroke:#000000;stroke-width:1.25;stroke-linecap:butt;stroke-linejoin:miter;marker:none;marker-start:none;marker-mid:none;marker-end:none;stroke-miterlimit:4;stroke-dasharray:1.25, 5;stroke-dashoffset:0;stroke-opacity:1;visibility:visible;display:inline;overflow:visible"
       d="M 224.7278,236.9495 C 143.89042,297.80743 61.605195,325.046 41.055425,297.74987 C 20.505656,270.45375 69.434732,198.90843 150.27211,138.0505 C 231.10949,77.192571 313.39472,49.954002 333.94449,77.250124 C 354.49425,104.54625 305.56518,176.09157 224.7278,236.9495 z "
       id="path3145"
       sodipodi:nodetypes="ccscc" />
    <path
       style="color:#000000;fill:none;fill-opacity:1;fill-rule:evenodd;stroke:#000000;stroke-width:1.25;stroke-linecap:butt;stroke-linejoin:miter;marker:none;marker-start:none;marker-mid:none;marker-end:none;stroke-miterlimit:4;stroke-dasharray:none;stroke-dashoffset:0;stroke-opacity:1;visibility:visible;display:inline;overflow:visible"
       d="M 41.055425,297.74987 C 20.505656,270.45375 69.434732,198.90843 150.27211,138.0505 C 231.10949,77.192571 313.39472,49.954002 333.94449,77.250124"
       id="path3150"
       sodipodi:nodetypes="csc" />
    <path
       style="color:#000000;fill:none;fill-opacity:1;fill-rule:evenodd;stroke:#000000;stroke-width:1;stroke-linecap:butt;stroke-linejoin:miter;marker:none;marker-start:none;marker-mid:none;marker-end:none;stroke-miterlimit:4;stroke-dasharray:1, 4;stroke-dashoffset:0;stroke-opacity:1;visibility:visible;display:inline;overflow:visible"
       d="M 187.4058,125.6036 C 86.221105,125.75756 4.1423529,153.6121 4.1943012,187.77891 C 4.2462495,221.94572 86.409324,249.55035 187.59402,249.39639 C 288.77872,249.24243 370.85747,221.38789 370.80552,187.22108 C 370.75357,153.05427 288.5905,125.44964 187.4058,125.6036 z "
       id="path3172"
       sodipodi:nodetypes="ccscc" />
    <path
       style="color:#000000;fill:none;fill-opacity:1;fill-rule:evenodd;stroke:#000000;stroke-width:1.25;stroke-linecap:butt;stroke-linejoin:miter;marker:none;marker-start:none;marker-mid:none;marker-end:none;stroke-miterlimit:4;stroke-dasharray:none;stroke-dashoffset:0;stroke-opacity:1;visibility:visible;display:inline;overflow:visible"
       d="M 4.1943012,187.77891 C 4.2462495,221.94572 86.409324,249.55035 187.59402,249.39639 C 288.77872,249.24243 370.85747,221.38789 370.80552,187.22108"
       id="path3174"
       sodipodi:nodetypes="csc" />
    <path
       style="color:#000000;fill:none;fill-opacity:1;fill-rule:evenodd;stroke:#000000;stroke-width:1;stroke-linecap:butt;stroke-linejoin:miter;marker:none;marker-start:none;marker-mid:none;marker-end:none;stroke-miterlimit:4;stroke-dasharray:none;stroke-dashoffset:0;stroke-opacity:1;visibility:visible;display:inline;overflow:visible"
       d="M 187.96941,370.80591 C 134.29027,370.80591 90.724583,288.68486 90.724583,187.5 C 90.724583,86.315134 134.29027,4.194084 187.96941,4.194084"
       id="path3176"
       sodipodi:nodetypes="css" />
    <path
       style="color:#000000;fill:none;fill-opacity:1;fill-rule:evenodd;stroke:#000000;stroke-width:1;stroke-linecap:butt;stroke-linejoin:miter;marker:none;marker-start:none;marker-mid:none;marker-end:none;stroke-miterlimit:4;stroke-dasharray:none;stroke-dashoffset:0;stroke-opacity:1;visibility:visible;display:inline;overflow:visible"
       d="M 189.83346,370.80591 C 236.21637,370.80591 273.86047,288.68486 273.86047,187.5 C 273.86047,86.315134 236.21637,4.194084 189.83346,4.194084"
       id="path3179"
       sodipodi:nodetypes="css" />
    <path
       style="fill:none;fill-opacity:0.75;fill-rule:evenodd;stroke:#000000;stroke-width:1.00000036px;stroke-linecap:butt;stroke-linejoin:miter;stroke-opacity:1"
       d="M 187.5,369.86721 L 187.5,187.50008 L 95,241"
       id="path3185"
       sodipodi:nodetypes="cc" />
    <path
       style="fill:none;fill-opacity:0.75;fill-rule:evenodd;stroke:#000000;stroke-width:1px;stroke-linecap:butt;stroke-linejoin:miter;stroke-opacity:1"
       d="M 188,188 L 270.5,243"
       id="path3187"
       sodipodi:nodetypes="cc" />
    <path
       style="color:#000000;fill:none;fill-opacity:1;fill-rule:evenodd;stroke:#646464;stroke-width:6.25;stroke-linecap:butt;stroke-linejoin:miter;marker:none;marker-start:none;marker-mid:none;marker-end:none;stroke-miterlimit:4;stroke-dasharray:none;stroke-dashoffset:0;stroke-opacity:1;visibility:visible;display:inline;overflow:visible"
       d="M 92.063798,189.06295 C 108.59135,172.00618 128.24741,154.63166 150.27211,138.0505 C 188.44852,109.30962 226.94785,88.066909 259.11505,76.525362"
       id="path3189"
       sodipodi:nodetypes="css" />
    <path
       sodipodi:type="arc"
       style="opacity:1;color:#000000;fill:#c8c8c8;fill-opacity:1;fill-rule:evenodd;stroke:#000000;stroke-width:1.25;stroke-linecap:butt;stroke-linejoin:miter;marker:none;marker-start:none;marker-mid:none;marker-end:none;stroke-miterlimit:4;stroke-dasharray:none;stroke-dashoffset:0;stroke-opacity:1;visibility:visible;display:inline;overflow:visible"
       id="path3191"
       sodipodi:cx="-93.5"
       sodipodi:cy="125.5"
       sodipodi:rx="5.5"
       sodipodi:ry="5.5"
       d="M -88 125.5 A 5.5 5.5 0 1 1  -99,125.5 A 5.5 5.5 0 1 1  -88 125.5 z"
       transform="translate(185,63.5)" />
    <path
       sodipodi:type="arc"
       style="opacity:1;color:#000000;fill:#c8c8c8;fill-opacity:1;fill-rule:evenodd;stroke:#000000;stroke-width:1.25;stroke-linecap:butt;stroke-linejoin:miter;marker:none;marker-start:none;marker-mid:none;marker-end:none;stroke-miterlimit:4;stroke-dasharray:none;stroke-dashoffset:0;stroke-opacity:1;visibility:visible;display:inline;overflow:visible"
       id="path3193"
       sodipodi:cx="-93.5"
       sodipodi:cy="125.5"
       sodipodi:rx="5.5"
       sodipodi:ry="5.5"
       d="M -88 125.5 A 5.5 5.5 0 1 1  -99,125.5 A 5.5 5.5 0 1 1  -88 125.5 z"
       transform="translate(351,-48.5)" />
  </g>
  <g
     inkscape:groupmode="layer"
     id="layer1"
     inkscape:label="napisy">
    <path
       style="font-size:28.95626831px;font-style:normal;font-variant:normal;font-weight:normal;font-stretch:normal;text-align:center;line-height:125%;writing-mode:lr-tb;text-anchor:middle;fill:#000000;fill-opacity:1;stroke:none;stroke-width:1px;stroke-linecap:butt;stroke-linejoin:miter;stroke-opacity:1;font-family:Arial"
       d="M 64.662329,194.44513 L 72.622475,173.71764 L 75.577485,173.71764 L 84.060767,194.44513 L 80.936091,194.44513 L 78.518356,188.1675 L 69.85127,188.1675 L 67.574922,194.44513 L 64.662329,194.44513 M 70.643043,185.93357 L 77.670028,185.93357 L 75.506791,180.19322 C 74.84697,178.44945 74.356825,177.01672 74.036355,175.89502 C 73.772422,177.22408 73.400101,178.5437 72.91939,179.85388 L 70.643043,185.93357"
       id="text3197" />
    <path
       style="font-size:28.95626831px;font-style:normal;font-variant:normal;font-weight:normal;font-stretch:normal;text-align:center;line-height:125%;writing-mode:lr-tb;text-anchor:middle;fill:#000000;fill-opacity:1;stroke:none;stroke-width:1px;stroke-linecap:butt;stroke-linejoin:miter;stroke-opacity:1;font-family:Arial"
       d="M 268.46404,96.363739 L 268.46404,75.636254 L 276.24038,75.636254 C 277.82392,75.636275 279.09169,75.848357 280.04372,76.2725 C 281.00514,76.687258 281.7545,77.332929 282.29179,78.209516 C 282.83847,79.076713 283.11182,79.986309 283.11184,80.938305 C 283.11182,81.824351 282.87146,82.65854 282.39076,83.440873 C 281.91003,84.223232 281.18423,84.854765 280.21338,85.335473 C 281.46701,85.703092 282.42845,86.329912 283.0977,87.215934 C 283.77635,88.101973 284.11568,89.148244 284.11569,90.354748 C 284.11568,91.325617 283.90831,92.2305 283.49359,93.069398 C 283.08826,93.898877 282.58397,94.539835 281.98073,94.992275 C 281.37746,95.444718 280.61868,95.788762 279.70439,96.024408 C 278.79949,96.250629 277.68724,96.363739 276.36763,96.363739 L 268.46404,96.363739 M 271.20697,84.345757 L 275.68897,84.345757 C 276.90489,84.345769 277.77679,84.265649 278.30465,84.105397 C 279.00215,83.89804 279.52528,83.553996 279.87405,83.073264 C 280.23222,82.592559 280.41131,81.989304 280.41133,81.263498 C 280.41131,80.575425 280.24636,79.97217 279.91647,79.453731 C 279.58655,78.9259 279.11526,78.567717 278.50259,78.379182 C 277.8899,78.181257 276.83891,78.082285 275.34964,78.082267 L 271.20697,78.082267 L 271.20697,84.345757 M 271.20697,93.917726 L 276.36763,93.917726 C 277.25365,93.917729 277.87576,93.884738 278.23395,93.818754 C 278.86547,93.705647 279.39332,93.51713 279.8175,93.253202 C 280.24165,92.989281 280.59041,92.607534 280.86377,92.107959 C 281.1371,91.598967 281.27378,91.014564 281.27379,90.354748 C 281.27378,89.581833 281.07584,88.912597 280.67997,88.347038 C 280.28406,87.772068 279.73265,87.371469 279.02573,87.14524 C 278.3282,86.909602 277.31963,86.791779 276.00002,86.791769 L 271.20697,86.791769 L 271.20697,93.917726"
       id="text3205" />
    <text
       xml:space="preserve"
       style="font-size:18px;font-style:normal;font-variant:normal;font-weight:normal;font-stretch:normal;text-align:center;line-height:100%;writing-mode:lr-tb;text-anchor:middle;fill:#000000;fill-opacity:1;stroke:none;font-family:DejaVu Sans;-inkscape-font-specification:DejaVu Sans"
       id="text2854"
       sodipodi:linespacing="100%"
       transform="matrix(0.83776207,-0.54603544,0.54603544,0.83776207,0,0)"
       x="25.506929"
       y="286.2724"><tspan
   id="tspan2856"><tspan
     x="68.445343"
     y="191.79877"
     id="tspan2858">ORTODROMIA</tspan></tspan></text>
  </g>
</svg>
